<?xml version="1.0" encoding="UTF-8" standalone="no"?>
<!-- Created with Inkscape (http://www.inkscape.org/) -->

<svg
   width="95.442146mm"
   height="58.317677mm"
   viewBox="0 0 100 60"
   version="1.1"
   id="svg1"
   xmlns="http://www.w3.org/2000/svg"
   xmlns:svg="http://www.w3.org/2000/svg">
  <defs
     id="defs1" />
  <g
     id="layer1"
     transform="translate(-35.793893,-55.839985)">
    <path
       style="fill:none;fill-opacity:1;stroke:#ffffff;stroke-width:2.82223;stroke-linecap:round;stroke-linejoin:round;stroke-dasharray:none;stroke-opacity:1"
       d="m 64.166665,81.033333 c -9.417907,0.979254 -15.072667,2.881347 -15.522221,6.477778 -0.04042,0.323408 -0.145759,0.68626 0,0.977776 1.465551,2.931101 9.121857,4.231779 11.733334,4.400002 4.082714,0.262996 13.410089,0.857102 24.444444,0.488886 12.78684,-0.426696 43.798038,-2.181218 44.967298,-8.761656 0.87474,-4.922937 -11.96585,-5.693397 -16.55063,-5.186953"
       id="path43" />
    <path
       style="fill:none;fill-opacity:1;stroke:#ffffff;stroke-width:2.82223;stroke-linecap:round;stroke-linejoin:round;stroke-dasharray:none;stroke-opacity:1"
       d="m 65.51111,84.088887 c -0.247363,-7.010447 3.828771,-16.946429 4.644446,-18.577777 1.849358,-3.698719 3.067209,-6.40018 7.333332,-7.822221 9.290382,-2.780892 12.386614,8.03386 15.155555,6.355554 2.936731,-1.780007 6.092822,-6.73501 10.083327,-5.5 5.85906,1.813302 7.99132,11.38641 8.49445,13.566667 0.22034,0.954802 1.31394,7.449205 1.55309,8.40135"
       id="path44" />
    <path
       style="fill:none;fill-opacity:1;stroke:#ffffff;stroke-width:2.82223;stroke-linecap:round;stroke-linejoin:round;stroke-dasharray:none;stroke-opacity:1"
       d="m 67.583695,94.029486 c -0.973396,3.090608 -1.71541,9.236254 2.592724,12.099384 4.899385,3.54894 9.506061,4.33963 13.005565,4.51503 18.009146,0.9026 23.528286,-1.27571 27.917546,-11.256114 0.84174,-1.913967 1.34572,-5.326044 0.73133,-7.240458"
       id="path45" />
    <path
       style="fill:none;fill-opacity:1;stroke:#ffffff;stroke-width:2.37385;stroke-linecap:round;stroke-linejoin:round;stroke-dasharray:none;stroke-opacity:1"
       d="m 58.90039,99.142538 c 0.814874,0.142314 0.229574,1.003982 0.62836,1.345562 0.178266,0.15269 1.085911,0.19308 1.256721,0.13456 0.108712,-0.0372 0.0743,-0.1982 0.157091,-0.26911 0.1335,-0.11436 0.366543,-0.13456 0.471269,-0.26912 0.119759,-0.153867 0.09778,-0.360408 0.157091,-0.538222 0.587388,-1.760952 -2.24674,-1.077815 -2.670532,-0.40367 -0.542409,0.862832 1.114033,1.892392 2.014717,1.506642 0.702504,-0.30087 0.708382,-2.007285 -0.12468,-2.347351 -1.399572,-0.423634 -0.005,0.437042 -0.633316,-0.101182 -0.393598,-0.337138 -1.256721,0.465107 -1.256721,0.941891 0,0.423134 0.460152,0.758008 0.785451,1.076452 0.443845,0.43449 1.633731,-1.076452 0.47127,-1.076452"
       id="path46" />
    <path
       style="fill:none;fill-opacity:1;stroke:#ffffff;stroke-width:2.66227;stroke-linecap:round;stroke-linejoin:round;stroke-dasharray:none;stroke-opacity:1"
       d="m 85.228758,98.387496 c -1.107166,0.46997 -0.724595,0.03 -0.949682,1.343732 -0.04812,0.280882 -0.625222,0.558132 -0.417551,0.753412 0.696257,0.6547 2.70138,0.64365 2.863612,0.47149 0.116332,-0.12345 0.147674,-1.734269 0.08642,-1.896768 -0.193646,-0.513742 -1.234925,-0.887212 -1.582803,-0.671866 -1.04244,0.645304 -2.091527,1.32372 -1.241853,1.967504 0.582751,0.44154 0.867336,0.71996 1.400134,0.71996 0.355912,0 1.618847,0.015 1.741082,-0.5039 0.195973,-0.831859 -0.202738,-1.406634 -0.633121,-2.015596 -0.07079,-0.100157 -0.04122,-0.320406 -0.158279,-0.335933 -0.951121,-0.126167 -3.132507,0.60927 -2.690766,2.015599 0.08832,0.28117 2.037862,0.33593 2.374205,0.33593"
       id="path47" />
    <g
       id="g49"
       transform="translate(6.1075132,2.3641623)">
      <path
         style="fill:none;fill-opacity:1;stroke:#ffffff;stroke-width:2.82223;stroke-linecap:round;stroke-linejoin:round;stroke-dasharray:none;stroke-opacity:1"
         d="m 34.223968,94.029486 c -2.171558,1.432083 -3.018956,3.830543 -3.11127,5.531146 -0.411999,7.589808 7.370806,7.255508 9.852354,6.741088 2.456718,-0.50928 4.704378,-2.98915 5.271874,-5.61758 0.446294,-2.06706 -0.400081,-3.890275 -1.642059,-5.271867 -4.19024,-4.190263 -8.167662,-2.835761 -10.370899,-1.382787 z"
         id="path48" />
      <path
         style="fill:none;fill-opacity:1;stroke:#ffffff;stroke-width:2.82223;stroke-linecap:round;stroke-linejoin:round;stroke-dasharray:none;stroke-opacity:1"
         d="m 45.309029,105.02887 c 6.27362,2.2371 9.896642,3.92581 13.579529,5.35351"
         id="path49" />
    </g>
    <path
       style="fill:none;fill-opacity:1;stroke:#ffffff;stroke-width:5.27232;stroke-linecap:round;stroke-linejoin:round;stroke-dasharray:none;stroke-opacity:1"
       d="m 67.891216,77.065017 c 2.339472,0.347781 13.121409,1.029235 15.484289,1.008852 8.858512,-0.07641 16.955855,-0.158373 27.270585,-1.201428"
       id="path50" />
  </g>
</svg>
